<svg width="220" height="55" viewBox="0 0 400 130" xmlns="http://www.w3.org/2000/svg">
<defs>
  <linearGradient id="pg" x1="0%" y1="0%" x2="100%" y2="100%">
    <stop offset="0%" style="stop-color:#7c3aed"/>
    <stop offset="100%" style="stop-color:#a855f7"/>
  </linearGradient>
  <linearGradient id="beam" x1="0%" y1="50%" x2="100%" y2="50%">
    <stop offset="0%" style="stop-color:#a855f7;stop-opacity:0.45"/>
    <stop offset="100%" style="stop-color:#a855f7;stop-opacity:0"/>
  </linearGradient>
</defs>
<g transform="translate(10, 5)">
  <rect x="0" y="20" width="72" height="50" rx="8" fill="url(#pg)"/>
  <polygon points="72,26 92,14 92,76 72,64" fill="#9333ea"/>
  <circle cx="24" cy="45" r="16" fill="#1a0a2e"/>
  <circle cx="24" cy="45" r="11" fill="url(#pg)"/>
  <circle cx="24" cy="45" r="5" fill="#1a0a2e"/>
  <circle cx="24" cy="45" r="2" fill="#a855f7"/>
  <rect x="8" y="6" width="11" height="15" rx="3" fill="url(#pg)"/>
  <rect x="25" y="6" width="11" height="15" rx="3" fill="url(#pg)"/>
  <rect x="42" y="6" width="11" height="15" rx="3" fill="url(#pg)"/>
  <rect x="59" y="6" width="11" height="15" rx="3" fill="url(#pg)"/>
  <rect x="44" y="28" width="20" height="8" rx="2" fill="#1a0a2e" opacity="0.5"/>
  <rect x="44" y="40" width="20" height="8" rx="2" fill="#1a0a2e" opacity="0.5"/>
  <polygon points="92,14 400,0 400,95 92,76" fill="url(#beam)"/>
  <text x="98" y="68" font-family="Georgia, serif" font-weight="700" font-style="italic" font-size="52" fill="#7c3aed">D</text>
  <text x="138" y="71" font-family="Georgia, serif" font-weight="700" font-style="italic" font-size="58" fill="#8b3aed">U</text>
  <text x="183" y="74" font-family="Georgia, serif" font-weight="700" font-style="italic" font-size="64" fill="#9333ea">N</text>
  <text x="234" y="78" font-family="Georgia, serif" font-weight="700" font-style="italic" font-size="72" fill="#a855f7">Ё</text>
</g>
</svg>